{"title":"syfy Original Bermuda Tentacles 2014 tvrip","uid":9973569,"size":734230866,"categoryP":"video","categoryS":"movies","magnet":"?xt=urn:btih:fc442150939737ac3f0c57cbbaacd0d81a96b0e7&amp;dn=syfy+Original+Bermuda+Tentacles+2014+tvrip&amp;tr=udp%3A%2F%2Ftracker.openbittorrent.com%3A80&amp;tr=udp%3A%2F%2Fopen.demonii.com%3A1337&amp;tr=udp%3A%2F%2Ftracker.coppersurfer.tk%3A6969&amp;tr=udp%3A%2F%2Fexodus.desync.com%3A6969","seeders":1,"leechers":3,"uploader":"xxxlavalxxx","files":-1,"time":1397658218,"description":"\n &lt;a href=&quot;\nhttp://www.imdb.com/title/tt3307726/&quot; rel=&quot;nofollow&quot; target=&quot;_NEW&quot;&gt;\nhttp://www.imdb.com/title/tt3307726/&lt;/a&gt;\n\n\nAfter Air Force One goes down during a storm over the Bermuda Triangle, the United States Navy is dispatched to find the escape pod holding the President. A giant monster beneath the ocean awakens and attacks the fleet.\n\nDirector: Nick Lyon\nWriter: Geoff Meed\nStars: Justin Cuomo, Trevor Donovan, Jamie Kennedy\nGenres: Sci-Fi\nCountry: USA\nLanguage: English\n\n\nGeneral\nComplete name                            : syfy Original Bermuda Tentacles 2014 tvrip/syfy Original Bermuda Tentacles 2014 tvrip.avi\nFormat                                   : AVI\nFormat/Info                              : Audio Video Interleave\nFile size                                : 700 MiB\nDuration                                 : 1h 25mn\nOverall bit rate mode                    : Variable\nOverall bit rate                         : 1 139 Kbps\nWriting application                      : VirtualDubMod 1.5.4.1 (build 2178/release)\nWriting library                          : VirtualDubMod build 2178/release\n\nVideo\nID                                       : 0\nFormat                                   : MPEG-4 Visual\nFormat profile                           : Advanced Simple@L5\nFormat settings, BVOP                    : 1\nFormat settings, QPel                    : No\nFormat settings, GMC                     : No warppoints\nFormat settings, Matrix                  : Custom\nCodec ID                                 : XVID\nCodec ID/Hint                            : XviD\nDuration                                 : 1h 25mn\nBit rate                                 : 1 014 Kbps\nWidth                                    : 640 pixels\nHeight                                   : 384 pixels\nDisplay aspect ratio                     : 1.667\nFrame rate                               : 23.976 fps\nColor space                              : YUV\nChroma subsampling                       : 4:2:0\nBit depth                                : 8 bits\nScan type                                : Progressive\nCompression mode                         : Lossy\nBits/(Pixel*Frame)                       : 0.172\nStream size                              : 623 MiB (89%)\nWriting library                          : XviD 1.2.1 (UTC 2008-12-04)\n\nAudio\nID                                       : 1\nFormat                                   : MPEG Audio\nFormat version                           : Version 1\nFormat profile                           : Layer 3\nMode                                     : Joint stereo\nCodec ID                                 : 55\nCodec ID/Hint                            : MP3\nDuration                                 : 1h 25mn\nBit rate mode                            : Variable\nBit rate                                 : 112 Kbps\nNominal bit rate                         : 128 Kbps\nChannel(s)                               : 2 channels\nSampling rate                            : 48.0 KHz\nCompression mode                         : Lossy\nStream size                              : 69.1 MiB (10%)\nAlignment                                : Aligned on interleaves\nInterleave, duration                     : 24 ms (0.58 video frame)\nInterleave, preload duration             : 559 ms\nWriting library                          : LAME3.98r\nEncoding settings                        : -m j -V 4 -q 2 -lowpass 17 --abr 128\n\n\n\n\nscreens\n &lt;a href=&quot;\nhttp://i.imgur.com/koBERVb.jpg&quot; rel=&quot;nofollow&quot; target=&quot;_NEW&quot;&gt;\nhttp://i.imgur.com/koBERVb.jpg&lt;/a&gt; &lt;a href=&quot;\nhttp://i.imgur.com/j40BI7x.jpg&quot; rel=&quot;nofollow&quot; target=&quot;_NEW&quot;&gt;\nhttp://i.imgur.com/j40BI7x.jpg&lt;/a&gt; &lt;a href=&quot;\nhttp://i.imgur.com/wG9V6Zf.jpg&quot; rel=&quot;nofollow&quot; target=&quot;_NEW&quot;&gt;\nhttp://i.imgur.com/wG9V6Zf.jpg&lt;/a&gt; &lt;a href=&quot;\nhttp://i.imgur.com/igGezLU.jpg&quot; rel=&quot;nofollow&quot; target=&quot;_NEW&quot;&gt;\nhttp://i.imgur.com/igGezLU.jpg&lt;/a&gt;\n &lt;a href=&quot;\nhttp://i.imgur.com/1yYCVHE.jpg&quot; rel=&quot;nofollow&quot; target=&quot;_NEW&quot;&gt;\nhttp://i.imgur.com/1yYCVHE.jpg&lt;/a&gt;","torrent":{"xt":"urn:btih:fc442150939737ac3f0c57cbbaacd0d81a96b0e7","amp;dn":"syfy+Original+Bermuda+Tentacles+2014+tvrip","amp;tr":["udp%3A%2F%2Ftracker.openbittorrent.com%3A80","udp%3A%2F%2Fopen.demonii.com%3A1337","udp%3A%2F%2Ftracker.coppersurfer.tk%3A6969","udp%3A%2F%2Fexodus.desync.com%3A6969"],"infoHash":"fc442150939737ac3f0c57cbbaacd0d81a96b0e7","infoHashBuffer":{"type":"Buffer","data":[252,68,33,80,147,151,55,172,63,12,87,203,186,172,208,216,26,150,176,231]},"announce":[],"urlList":[]}}